<mxfile host="Electron" modified="2023-12-02T15:54:29.702Z" agent="Mozilla/5.0 (Windows NT 10.0; Win64; x64) AppleWebKit/537.36 (KHTML, like Gecko) draw.io/21.6.5 Chrome/114.0.5735.243 Electron/25.3.1 Safari/537.36" etag="CAq6bJXWqdp3ySyNU5Lf" version="21.6.5" type="device">
  <diagram name="Page-1" id="hbk3G82xcq_aO88PHi2Z">
    <mxGraphModel dx="484" dy="566" grid="1" gridSize="8" guides="1" tooltips="1" connect="1" arrows="1" fold="1" page="1" pageScale="1" pageWidth="2560" pageHeight="1440" math="0" shadow="0">
      <root>
        <mxCell id="0" />
        <mxCell id="1" parent="0" />
        <mxCell id="T4b2zqATLYc1FD9dL-10-1" value="cm_sort" style="rounded=0;whiteSpace=wrap;html=1;verticalAlign=top;fontStyle=4" vertex="1" parent="1">
          <mxGeometry x="64" y="128" width="128" height="128" as="geometry" />
        </mxCell>
        <mxCell id="T4b2zqATLYc1FD9dL-10-2" value="parameters" style="rounded=0;whiteSpace=wrap;html=1;fillColor=#E6E6E6;" vertex="1" parent="1">
          <mxGeometry x="64" y="96" width="128" height="32" as="geometry" />
        </mxCell>
        <mxCell id="T4b2zqATLYc1FD9dL-10-3" style="edgeStyle=orthogonalEdgeStyle;rounded=0;orthogonalLoop=1;jettySize=auto;html=1;entryX=0;entryY=0.5;entryDx=0;entryDy=0;strokeWidth=1;startArrow=none;startFill=0;" edge="1" parent="1" target="T4b2zqATLYc1FD9dL-10-4">
          <mxGeometry relative="1" as="geometry">
            <mxPoint x="33" y="192" as="sourcePoint" />
          </mxGeometry>
        </mxCell>
        <mxCell id="T4b2zqATLYc1FD9dL-10-4" value="i_vld" style="text;html=1;strokeColor=none;fillColor=none;align=left;verticalAlign=middle;whiteSpace=wrap;rounded=0;" vertex="1" parent="1">
          <mxGeometry x="64" y="176" width="64" height="32" as="geometry" />
        </mxCell>
        <mxCell id="T4b2zqATLYc1FD9dL-10-5" style="edgeStyle=orthogonalEdgeStyle;rounded=0;orthogonalLoop=1;jettySize=auto;html=1;entryX=0;entryY=0.5;entryDx=0;entryDy=0;strokeWidth=2;" edge="1" parent="1" target="T4b2zqATLYc1FD9dL-10-6">
          <mxGeometry relative="1" as="geometry">
            <mxPoint x="32" y="224" as="sourcePoint" />
          </mxGeometry>
        </mxCell>
        <mxCell id="T4b2zqATLYc1FD9dL-10-6" value="i_data" style="text;html=1;strokeColor=none;fillColor=none;align=left;verticalAlign=middle;whiteSpace=wrap;rounded=0;" vertex="1" parent="1">
          <mxGeometry x="64" y="208" width="64" height="32" as="geometry" />
        </mxCell>
        <mxCell id="T4b2zqATLYc1FD9dL-10-7" style="edgeStyle=orthogonalEdgeStyle;rounded=0;orthogonalLoop=1;jettySize=auto;html=1;exitX=1;exitY=0.5;exitDx=0;exitDy=0;strokeWidth=1;startArrow=none;startFill=0;" edge="1" parent="1" source="T4b2zqATLYc1FD9dL-10-8">
          <mxGeometry relative="1" as="geometry">
            <mxPoint x="64" y="191.84848484848487" as="sourcePoint" />
            <mxPoint x="224" y="192" as="targetPoint" />
          </mxGeometry>
        </mxCell>
        <mxCell id="T4b2zqATLYc1FD9dL-10-8" value="o_vld" style="text;html=1;strokeColor=none;fillColor=none;align=right;verticalAlign=middle;whiteSpace=wrap;rounded=0;" vertex="1" parent="1">
          <mxGeometry x="128" y="176" width="64" height="32" as="geometry" />
        </mxCell>
        <mxCell id="T4b2zqATLYc1FD9dL-10-9" style="edgeStyle=orthogonalEdgeStyle;rounded=0;orthogonalLoop=1;jettySize=auto;html=1;exitX=1;exitY=0.5;exitDx=0;exitDy=0;strokeWidth=2;" edge="1" parent="1" source="T4b2zqATLYc1FD9dL-10-10">
          <mxGeometry relative="1" as="geometry">
            <mxPoint x="224" y="224" as="targetPoint" />
          </mxGeometry>
        </mxCell>
        <mxCell id="T4b2zqATLYc1FD9dL-10-10" value="o_data" style="text;html=1;strokeColor=none;fillColor=none;align=right;verticalAlign=middle;whiteSpace=wrap;rounded=0;" vertex="1" parent="1">
          <mxGeometry x="128" y="208" width="64" height="32" as="geometry" />
        </mxCell>
        <mxCell id="T4b2zqATLYc1FD9dL-10-11" style="edgeStyle=orthogonalEdgeStyle;rounded=0;orthogonalLoop=1;jettySize=auto;html=1;exitX=0;exitY=0.5;exitDx=0;exitDy=0;" edge="1" parent="1" source="T4b2zqATLYc1FD9dL-10-12">
          <mxGeometry relative="1" as="geometry">
            <mxPoint x="80" y="96" as="targetPoint" />
          </mxGeometry>
        </mxCell>
        <mxCell id="T4b2zqATLYc1FD9dL-10-12" value="DCNT" style="text;html=1;strokeColor=none;fillColor=none;align=left;verticalAlign=middle;whiteSpace=wrap;rounded=0;" vertex="1" parent="1">
          <mxGeometry x="192" width="64" height="32" as="geometry" />
        </mxCell>
        <mxCell id="T4b2zqATLYc1FD9dL-10-13" style="edgeStyle=orthogonalEdgeStyle;rounded=0;orthogonalLoop=1;jettySize=auto;html=1;exitX=0;exitY=0.5;exitDx=0;exitDy=0;" edge="1" parent="1" source="T4b2zqATLYc1FD9dL-10-14">
          <mxGeometry relative="1" as="geometry">
            <mxPoint x="112" y="96" as="targetPoint" />
          </mxGeometry>
        </mxCell>
        <mxCell id="T4b2zqATLYc1FD9dL-10-14" value="DWIDTH" style="text;html=1;strokeColor=none;fillColor=none;align=left;verticalAlign=middle;whiteSpace=wrap;rounded=0;" vertex="1" parent="1">
          <mxGeometry x="192" y="32" width="64" height="32" as="geometry" />
        </mxCell>
        <mxCell id="T4b2zqATLYc1FD9dL-10-15" style="edgeStyle=orthogonalEdgeStyle;rounded=0;orthogonalLoop=1;jettySize=auto;html=1;exitX=0;exitY=0.5;exitDx=0;exitDy=0;" edge="1" parent="1" source="T4b2zqATLYc1FD9dL-10-16">
          <mxGeometry relative="1" as="geometry">
            <mxPoint x="144.0000000000001" y="96" as="targetPoint" />
            <Array as="points">
              <mxPoint x="144" y="80" />
            </Array>
          </mxGeometry>
        </mxCell>
        <mxCell id="T4b2zqATLYc1FD9dL-10-16" value="REG_CNT" style="text;html=1;strokeColor=none;fillColor=none;align=left;verticalAlign=middle;whiteSpace=wrap;rounded=0;" vertex="1" parent="1">
          <mxGeometry x="192" y="64" width="64" height="32" as="geometry" />
        </mxCell>
      </root>
    </mxGraphModel>
  </diagram>
</mxfile>
